<?xml version="1.0" encoding="UTF-8" standalone="no"?>
<svg
   xmlns:dc="http://purl.org/dc/elements/1.1/"
   xmlns:cc="http://creativecommons.org/ns#"
   xmlns:rdf="http://www.w3.org/1999/02/22-rdf-syntax-ns#"
   xmlns:svg="http://www.w3.org/2000/svg"
   xmlns="http://www.w3.org/2000/svg"
   xmlns:sodipodi="http://sodipodi.sourceforge.net/DTD/sodipodi-0.dtd"
   xmlns:inkscape="http://www.inkscape.org/namespaces/inkscape"
   inkscape:version="1.0 (4035a4fb49, 2020-05-01)"
   inkscape:export-ydpi="150.00002"
   inkscape:export-xdpi="150.00002"
   inkscape:export-filename="D:\Data\flutter\vegan_daily_quote\android\app\src\main\res\drawable\icon.png"
   sodipodi:docname="vdq_splash.svg"
   id="svg60"
   version="1.1"
   viewBox="0 0 135.46666 135.46667"
   height="512"
   width="512">
  <defs
     id="defs54" />
  <sodipodi:namedview
     showguides="false"
     inkscape:window-maximized="1"
     inkscape:window-y="-8"
     inkscape:window-x="1912"
     inkscape:window-height="1377"
     inkscape:window-width="2560"
     units="px"
     showgrid="false"
     inkscape:document-rotation="0"
     inkscape:current-layer="layer1"
     inkscape:document-units="px"
     inkscape:cy="276.80628"
     inkscape:cx="386.769"
     inkscape:zoom="1.979899"
     inkscape:pageshadow="2"
     inkscape:pageopacity="0.0"
     borderopacity="1.0"
     bordercolor="#666666"
     pagecolor="#ffffff"
     id="base" />
  <metadata
     id="metadata57">
    <rdf:RDF>
      <cc:Work
         rdf:about="">
        <dc:format>image/svg+xml</dc:format>
        <dc:type
           rdf:resource="http://purl.org/dc/dcmitype/StillImage" />
        <dc:title></dc:title>
      </cc:Work>
    </rdf:RDF>
  </metadata>
  <g
     id="layer1"
     inkscape:groupmode="layer"
     inkscape:label="Laag 1">
    <text
       inkscape:export-ydpi="96.000008"
       inkscape:export-xdpi="96.000008"
       inkscape:export-filename="D:\Data\flutter\vegan_daily_quote\android\app\src\main\res\drawable\icon.png"
       transform="scale(0.82907171,1.2061683)"
       id="text64"
       y="74.660263"
       x="46.931538"
       style="font-style:italic;font-variant:normal;font-weight:normal;font-stretch:normal;font-size:7.97176px;line-height:125%;font-family:Calibri;-inkscape-font-specification:'Calibri Italic';letter-spacing:0px;word-spacing:0px;fill:#017f00;fill-opacity:1;stroke:none;stroke-width:0.199294px;stroke-linecap:butt;stroke-linejoin:miter;stroke-opacity:1"
       xml:space="preserve"><tspan
         style="font-style:italic;font-variant:normal;font-weight:normal;font-stretch:normal;font-family:Calibri;-inkscape-font-specification:'Calibri Italic';fill:#017f00;fill-opacity:1;stroke-width:0.199294px"
         y="74.660263"
         x="46.931538"
         id="tspan62"
         sodipodi:role="line">VEGAN DAILY QUOTE</tspan></text>
    <path
       inkscape:export-ydpi="96.000008"
       inkscape:export-xdpi="96.000008"
       inkscape:export-filename="D:\Data\flutter\vegan_daily_quote\android\app\src\main\res\drawable\icon.png"
       id="path70"
       style="fill:#017f00;stroke:none;stroke-width:0.0156714"
       d="m 93.057846,29.43417 c -1.333066,0.309511 -4.149173,0.869576 -6.248754,1.238041 -5.348932,0.928531 -6.198763,1.208564 -8.58162,2.770853 -3.382658,2.225525 -5.748852,6.529191 -5.732188,10.434914 0.01666,1.488597 0.266613,2.549775 0.54989,2.269742 0.06665,-0.07369 0.29994,-0.501112 0.4999,-0.94327 1.016463,-2.166571 3.965875,-5.468012 6.482039,-7.25138 1.283077,-0.913792 3.865894,-1.812846 3.865894,-1.341211 0,0.162124 -0.883157,1.13487 -1.932947,2.107616 -0.983137,0.928531 -1.316404,1.311734 -3.166035,3.684645 -1.916283,2.49082 -4.415784,6.941872 -6.098781,10.906549 -1.633008,3.84677 -2.832768,6.912394 -3.632609,9.211613 -1.34973,3.9352 -2.566153,7.04504 -2.782777,7.103995 -0.266614,0.08843 -0.9998,-2.019185 -2.532828,-7.251381 -2.382857,-8.19465 -3.399321,-11.009719 -5.832168,-16.138745 -1.666334,-3.493043 -3.865895,-6.293373 -8.33167,-10.5823 -2.449511,-2.372911 -5.932149,-4.642652 -8.031729,-5.261673 -1.366394,-0.41268 -1.483038,-0.20634 -0.449911,0.810622 4.865695,4.848992 7.6818,8.445206 10.664537,13.559493 2.516165,4.347881 4.249152,8.666285 7.398523,18.57061 0.799841,2.535036 2.566154,8.990535 3.132708,11.496093 0.633207,2.785592 1.333067,5.512229 1.516364,5.939646 0.06665,0.132647 0.316603,0.309513 0.566553,0.368467 0.566554,0.132647 3.299342,0.132647 3.882558,0 0.866494,-0.221081 1.033127,-0.825363 2.232888,-7.781972 0.79984,-4.701606 1.483037,-7.516675 2.849431,-11.71717 2.316204,-7.16295 4.782378,-12.409884 6.282078,-13.264722 0.216624,-0.117909 1.283078,-0.353726 2.399521,-0.51585 4.332469,-0.633759 7.815109,-2.328696 10.281282,-5.025856 1.649671,-1.798107 2.082917,-3.124579 2.499503,-7.546153 0.216623,-2.343434 0.349928,-3.00667 0.849827,-4.406835 0.316605,-0.913792 0.533227,-1.739152 0.499903,-1.842322 -0.116646,-0.265294 -0.383257,-0.235818 -3.099382,0.397941 z" />
  </g>
</svg>
